<svg width="595" height="238" viewBox="0 0 595 238" fill="none" xmlns="http://www.w3.org/2000/svg">
<path d="M113.524 234.784V173.676L115.454 167.243V35.0567L131.534 42.1324L36.3406 169.816L18.0095 154.7H181.382V187.827H0V155.986L114.811 3.21621H156.297V234.784H113.524Z" fill="url(#paint0_linear_1060_1950)"/>
<path d="M297.876 238C279.009 238 262.285 232.961 247.706 222.884C233.127 212.592 221.657 198.441 213.295 180.43C205.148 162.205 201.074 141.406 201.074 118.035C201.074 94.664 205.148 74.1874 213.295 56.6054C221.442 38.809 232.806 24.9793 247.385 15.1162C262.178 5.03874 279.009 0 297.876 0C316.957 0 333.787 5.03874 348.367 15.1162C362.946 24.9793 374.309 38.809 382.456 56.6054C390.818 74.1874 394.998 94.664 394.998 118.035C394.998 141.621 390.818 162.419 382.456 180.43C374.309 198.441 362.946 212.592 348.367 222.884C333.787 232.961 316.957 238 297.876 238ZM297.876 202.943C309.668 202.943 319.423 199.191 327.141 191.686C334.859 184.182 340.648 173.997 344.507 161.132C348.581 148.268 350.618 133.795 350.618 117.714C350.618 101.632 348.688 87.3739 344.829 74.9378C340.97 62.5018 335.074 52.746 327.141 45.6703C319.423 38.5946 309.668 35.0567 297.876 35.0567C286.298 35.0567 276.543 38.7018 268.61 45.9919C260.892 53.0676 255.103 62.8234 251.244 75.2595C247.385 87.6955 245.455 101.847 245.455 117.714C245.455 134.009 247.385 148.589 251.244 161.454C255.103 174.319 260.999 184.504 268.932 192.008C276.865 199.298 286.513 202.943 297.876 202.943Z" fill="url(#paint1_linear_1060_1950)"/>
<path d="M527.143 234.784V173.676L529.072 167.243V35.0567L545.152 42.1324L449.959 169.816L431.628 154.7H595V187.827H413.618V155.986L528.429 3.21621H569.915V234.784H527.143Z" fill="url(#paint2_linear_1060_1950)"/>
<defs>
<linearGradient id="paint0_linear_1060_1950" x1="297.5" y1="-34.5" x2="297.5" y2="233.983" gradientUnits="userSpaceOnUse">
<stop stop-color="#00B3C6"/>
<stop offset="0.496764" stop-color="#00B3C6" stop-opacity="0.33"/>
<stop offset="0.95" stop-color="#00B3C6" stop-opacity="0"/>
</linearGradient>
<linearGradient id="paint1_linear_1060_1950" x1="297.5" y1="-34.5" x2="297.5" y2="233.983" gradientUnits="userSpaceOnUse">
<stop stop-color="#00B3C6"/>
<stop offset="0.496764" stop-color="#00B3C6" stop-opacity="0.33"/>
<stop offset="0.95" stop-color="#00B3C6" stop-opacity="0"/>
</linearGradient>
<linearGradient id="paint2_linear_1060_1950" x1="297.5" y1="-34.5" x2="297.5" y2="233.983" gradientUnits="userSpaceOnUse">
<stop stop-color="#00B3C6"/>
<stop offset="0.496764" stop-color="#00B3C6" stop-opacity="0.33"/>
<stop offset="0.95" stop-color="#00B3C6" stop-opacity="0"/>
</linearGradient>
</defs>
</svg>
