<svg width="56" height="56" viewBox="0 0 56 56" fill="none" xmlns="http://www.w3.org/2000/svg">
<g filter="url(#filter0_i_288_2373)">
<rect width="56" height="56" rx="28" fill="white" fill-opacity="0.06"/>
<g clip-path="url(#clip0_288_2373)">
<path d="M28 16.75L25.75 25.75L28 28L30.25 25.75L28 16.75Z" stroke="#CFD0D2" stroke-width="1.5" stroke-linecap="round" stroke-linejoin="round"/>
<path d="M28 39.25L25.75 30.25L28 28L30.25 30.25L28 39.25Z" stroke="#CFD0D2" stroke-width="1.5" stroke-linecap="round" stroke-linejoin="round"/>
<path d="M30.25 25.75L39.25 28L30.25 30.25" stroke="#CFD0D2" stroke-width="1.5" stroke-linecap="round" stroke-linejoin="round"/>
<path d="M25.75 25.75L16.75 28L25.75 30.25" stroke="#CFD0D2" stroke-width="1.5" stroke-linecap="round" stroke-linejoin="round"/>
<path d="M19.7852 27.2415C19.9622 25.3236 20.8047 23.5281 22.1666 22.1661C23.5286 20.8042 25.3241 19.9617 27.242 19.7847" stroke="#CFD0D2" stroke-width="1.5" stroke-linecap="round" stroke-linejoin="round"/>
<path d="M27.242 36.2152C25.3241 36.0382 23.5286 35.1957 22.1666 33.8337C20.8047 32.4718 19.9622 30.6762 19.7852 28.7583" stroke="#CFD0D2" stroke-width="1.5" stroke-linecap="round" stroke-linejoin="round"/>
<path d="M36.2147 28.7583C36.0377 30.6762 35.1952 32.4718 33.8332 33.8337C32.4713 35.1957 30.6757 36.0382 28.7578 36.2152" stroke="#CFD0D2" stroke-width="1.5" stroke-linecap="round" stroke-linejoin="round"/>
<path d="M28.7578 19.7847C30.6757 19.9617 32.4713 20.8042 33.8332 22.1661C35.1952 23.5281 36.0377 25.3236 36.2147 27.2415" stroke="#CFD0D2" stroke-width="1.5" stroke-linecap="round" stroke-linejoin="round"/>
</g>
</g>
<defs>
<filter id="filter0_i_288_2373" x="0" y="0" width="56" height="57" filterUnits="userSpaceOnUse" color-interpolation-filters="sRGB">
<feFlood flood-opacity="0" result="BackgroundImageFix"/>
<feBlend mode="normal" in="SourceGraphic" in2="BackgroundImageFix" result="shape"/>
<feColorMatrix in="SourceAlpha" type="matrix" values="0 0 0 0 0 0 0 0 0 0 0 0 0 0 0 0 0 0 127 0" result="hardAlpha"/>
<feOffset dy="1"/>
<feGaussianBlur stdDeviation="0.5"/>
<feComposite in2="hardAlpha" operator="arithmetic" k2="-1" k3="1"/>
<feColorMatrix type="matrix" values="0 0 0 0 1 0 0 0 0 1 0 0 0 0 1 0 0 0 0.25 0"/>
<feBlend mode="normal" in2="shape" result="effect1_innerShadow_288_2373"/>
</filter>
<clipPath id="clip0_288_2373">
<rect width="24" height="24" fill="white" transform="translate(16 16)"/>
</clipPath>
</defs>
</svg>
