<svg width="24" height="24" viewBox="0 0 24 24" fill="none" xmlns="http://www.w3.org/2000/svg">
<g clip-path="url(#clip0_288_2313)">
<path d="M6.75 9.75C6.75 8.95435 7.06607 8.19129 7.62868 7.62868C8.19129 7.06607 8.95435 6.75 9.75 6.75L11.25 9.75L10.095 11.4816C10.5532 12.5763 11.4237 13.4468 12.5184 13.905L14.25 12.75L17.25 14.25C17.25 15.0456 16.9339 15.8087 16.3713 16.3713C15.8087 16.9339 15.0456 17.25 14.25 17.25C12.2609 17.25 10.3532 16.4598 8.9467 15.0533C7.54018 13.6468 6.75 11.7391 6.75 9.75Z" stroke="white" stroke-opacity="0.8" stroke-width="1.5" stroke-linecap="round" stroke-linejoin="round"/>
<path d="M7.49454 19.7914C9.38504 20.8856 11.6089 21.2549 13.7516 20.8304C15.8942 20.406 17.8094 19.2168 19.14 17.4846C20.4707 15.7524 21.1259 13.5954 20.9836 11.4157C20.8414 9.23605 19.9112 7.18253 18.3667 5.638C16.8222 4.09348 14.7687 3.16336 12.589 3.02108C10.4094 2.87879 8.25235 3.53405 6.52014 4.86468C4.78793 6.1953 3.59874 8.11048 3.17431 10.2531C2.74987 12.3958 3.11914 14.6197 4.21329 16.5102L3.04047 20.0118C2.9964 20.1439 2.99001 20.2857 3.022 20.4213C3.054 20.5569 3.12312 20.6808 3.22162 20.7794C3.32012 20.8779 3.44411 20.947 3.57969 20.979C3.71527 21.011 3.85708 21.0046 3.98922 20.9605L7.49454 19.7914Z" stroke="white" stroke-opacity="0.8" stroke-width="1.5" stroke-linecap="round" stroke-linejoin="round"/>
</g>
<defs>
<clipPath id="clip0_288_2313">
<rect width="24" height="24" fill="white"/>
</clipPath>
</defs>
</svg>
