<svg width="56" height="56" viewBox="0 0 56 56" fill="none" xmlns="http://www.w3.org/2000/svg">
<g filter="url(#filter0_i_288_2312)">
<rect width="56" height="56" rx="28" fill="white" fill-opacity="0.06"/>
<g clip-path="url(#clip0_288_2312)">
<path d="M22.75 25.75C22.75 24.9544 23.0661 24.1913 23.6287 23.6287C24.1913 23.0661 24.9544 22.75 25.75 22.75L27.25 25.75L26.095 27.4816C26.5532 28.5763 27.4237 29.4468 28.5184 29.905L30.25 28.75L33.25 30.25C33.25 31.0456 32.9339 31.8087 32.3713 32.3713C31.8087 32.9339 31.0456 33.25 30.25 33.25C28.2609 33.25 26.3532 32.4598 24.9467 31.0533C23.5402 29.6468 22.75 27.7391 22.75 25.75Z" stroke="white" stroke-opacity="0.8" stroke-width="1.5" stroke-linecap="round" stroke-linejoin="round"/>
<path d="M23.4945 35.7914C25.385 36.8856 27.6089 37.2549 29.7516 36.8304C31.8942 36.406 33.8094 35.2168 35.14 33.4846C36.4707 31.7524 37.1259 29.5954 36.9836 27.4157C36.8414 25.2361 35.9112 23.1825 34.3667 21.638C32.8222 20.0935 30.7687 19.1634 28.589 19.0211C26.4094 18.8788 24.2524 19.534 22.5201 20.8647C20.7879 22.1953 19.5987 24.1105 19.1743 26.2531C18.7499 28.3958 19.1191 30.6197 20.2133 32.5102L19.0405 36.0118C18.9964 36.1439 18.99 36.2857 19.022 36.4213C19.054 36.5569 19.1231 36.6808 19.2216 36.7794C19.3201 36.8779 19.4441 36.947 19.5797 36.979C19.7153 37.011 19.8571 37.0046 19.9892 36.9605L23.4945 35.7914Z" stroke="white" stroke-opacity="0.8" stroke-width="1.5" stroke-linecap="round" stroke-linejoin="round"/>
</g>
</g>
<defs>
<filter id="filter0_i_288_2312" x="0" y="0" width="56" height="57" filterUnits="userSpaceOnUse" color-interpolation-filters="sRGB">
<feFlood flood-opacity="0" result="BackgroundImageFix"/>
<feBlend mode="normal" in="SourceGraphic" in2="BackgroundImageFix" result="shape"/>
<feColorMatrix in="SourceAlpha" type="matrix" values="0 0 0 0 0 0 0 0 0 0 0 0 0 0 0 0 0 0 127 0" result="hardAlpha"/>
<feOffset dy="1"/>
<feGaussianBlur stdDeviation="0.5"/>
<feComposite in2="hardAlpha" operator="arithmetic" k2="-1" k3="1"/>
<feColorMatrix type="matrix" values="0 0 0 0 1 0 0 0 0 1 0 0 0 0 1 0 0 0 0.25 0"/>
<feBlend mode="normal" in2="shape" result="effect1_innerShadow_288_2312"/>
</filter>
<clipPath id="clip0_288_2312">
<rect width="24" height="24" fill="white" transform="translate(16 16)"/>
</clipPath>
</defs>
</svg>
